<?xml version="1.0" standalone="no"?>
<!DOCTYPE svg PUBLIC "-//W3C//DTD SVG 20010904//EN"
 "http://www.w3.org/TR/2001/REC-SVG-20010904/DTD/svg10.dtd">
<svg version="1.0" xmlns="http://www.w3.org/2000/svg"
 width="375.000000pt" height="375.000000pt" viewBox="0 0 375.000000 375.000000"
 preserveAspectRatio="xMidYMid meet">

<g transform="translate(0.000000,375.000000) scale(0.100000,-0.100000)"
fill="#000000" stroke="none">
<path d="M1757 3118 c-3 -18 -11 -75 -18 -126 -10 -79 -10 -95 2 -103 22 -13
28 1 35 98 4 51 11 90 15 87 5 -2 22 -32 40 -64 19 -35 38 -60 48 -60 9 0 35
23 59 50 24 28 47 50 51 50 4 0 2 -42 -5 -92 -13 -90 -10 -107 17 -108 6 0 20
85 35 213 6 53 5 57 -14 57 -11 0 -43 -25 -75 -60 -31 -33 -60 -60 -64 -60 -4
0 -26 34 -47 75 -44 84 -70 98 -79 43z"/>
<path d="M2181 3048 c-5 -13 -30 -67 -55 -122 -26 -54 -45 -100 -44 -101 14
-14 165 -74 175 -71 26 10 12 24 -57 55 -38 17 -70 33 -70 36 0 15 32 65 41
65 5 0 32 -11 59 -25 58 -29 56 -29 64 -10 4 11 -12 24 -54 45 -33 17 -60 32
-60 35 0 16 26 55 36 55 8 0 41 -13 74 -29 51 -25 62 -27 67 -15 7 19 13 14
-85 63 l-82 41 -9 -22z"/>
<path d="M1272 2977 c-12 -13 -22 -29 -22 -35 0 -7 -4 -12 -10 -12 -5 0 -10 5
-10 10 0 6 -7 10 -15 10 -8 0 -15 -5 -15 -10 0 -23 73 -170 85 -170 24 0 23
13 -2 65 -32 65 -26 102 18 118 18 7 28 18 27 27 -5 24 -32 23 -56 -3z"/>
<path d="M2402 2804 c-70 -81 -81 -98 -70 -111 11 -14 17 -11 45 23 l33 38 28
-21 c25 -19 27 -26 24 -83 -2 -59 8 -90 29 -90 5 0 9 15 9 33 0 59 10 77 40
77 45 0 80 35 80 79 0 33 -7 45 -59 94 -33 32 -63 57 -68 57 -4 0 -45 -44 -91
-96z m140 9 c47 -46 52 -89 13 -99 -25 -6 -40 1 -94 45 l-25 19 28 36 c15 20
30 36 34 36 3 0 23 -17 44 -37z"/>
<path d="M1455 2880 c-8 -13 12 -40 29 -40 18 0 35 21 29 36 -6 16 -49 19 -58
4z"/>
<path d="M1013 2830 c-36 -21 -63 -66 -63 -104 0 -32 43 -82 76 -89 43 -8 90
11 123 49 27 30 41 64 26 64 -3 0 -23 -18 -45 -40 -31 -31 -48 -40 -74 -40
-19 0 -37 4 -41 9 -3 5 26 34 65 63 38 29 69 58 70 64 0 18 -46 44 -77 44 -15
0 -42 -9 -60 -20z m82 -28 c0 -16 -96 -93 -107 -86 -14 9 -9 30 13 58 33 42
94 60 94 28z"/>
<path d="M833 2635 c-33 -14 -73 -67 -73 -96 0 -9 -9 -19 -21 -22 -12 -3 -20
-10 -18 -16 6 -15 212 -162 223 -158 23 8 14 26 -24 51 -22 14 -40 28 -40 31
0 2 13 11 30 20 55 28 77 107 44 154 -9 13 -32 29 -50 37 -39 16 -31 17 -71
-1z m78 -43 c49 -40 11 -132 -54 -132 -68 0 -89 69 -38 121 34 34 59 37 92 11z"/>
<path d="M2655 2579 c-117 -71 -119 -73 -112 -93 5 -12 19 -8 74 26 37 22 76
47 86 56 9 8 19 13 21 11 2 -2 -13 -58 -34 -124 -43 -134 -46 -153 -25 -161
10 -4 192 95 223 122 2 1 0 10 -5 19 -8 13 -22 8 -96 -39 -48 -30 -87 -52 -87
-48 0 4 16 59 36 122 20 63 38 122 41 131 2 8 -2 20 -9 27 -11 8 -36 -3 -113
-49z"/>
<path d="M673 2354 c-38 -19 -63 -67 -63 -121 0 -50 22 -80 70 -94 33 -10 43
-9 71 7 68 40 89 132 42 184 -34 37 -77 46 -120 24z m92 -49 c30 -29 31 -50 5
-92 -48 -79 -148 -37 -126 52 16 63 78 84 121 40z"/>
<path d="M2640 2200 c0 -15 12 -21 58 -30 31 -6 93 -20 137 -30 154 -34 168
-35 147 -4 -7 12 -93 34 -232 60 -47 8 -91 17 -97 19 -8 3 -13 -4 -13 -15z"/>
<path d="M480 2056 c0 -18 6 -20 155 -39 113 -16 125 -15 125 7 0 9 -29 17
-92 25 -51 6 -114 14 -140 18 -40 5 -48 3 -48 -11z"/>
<path d="M2740 1966 c0 -17 110 -32 163 -22 18 3 36 3 40 0 3 -3 -41 -47 -99
-96 -65 -56 -104 -97 -104 -109 0 -17 8 -19 84 -19 46 0 104 -3 130 -6 42 -6
46 -5 46 14 0 18 -8 21 -75 27 -41 4 -86 4 -100 1 -14 -4 -25 -3 -25 1 1 5 48
46 105 93 144 117 142 124 -32 128 -111 2 -133 0 -133 -12z"/>
<path d="M579 1891 c-34 -34 -39 -92 -14 -141 31 -59 107 -69 156 -21 24 25
29 38 29 80 0 57 -16 101 -38 101 -10 0 -12 -6 -7 -22 18 -56 17 -103 -4 -128
-18 -21 -22 -23 -31 -10 -5 8 -10 40 -10 70 -1 106 -24 127 -81 71z m54 -78
c3 -38 2 -72 -3 -76 -12 -13 -50 43 -50 75 0 36 16 68 34 68 9 0 15 -21 19
-67z"/>
<path d="M2715 1637 c-53 -152 -57 -169 -46 -180 15 -15 24 -1 52 81 17 51 24
62 38 57 9 -4 24 -10 34 -12 21 -6 21 -14 2 -78 -15 -50 -14 -75 4 -75 5 0 19
29 31 65 12 36 23 65 24 65 15 0 66 -24 66 -31 0 -4 -11 -37 -24 -73 -23 -65
-23 -76 0 -76 17 0 77 180 61 185 -7 2 -63 22 -125 44 -79 28 -114 37 -117 28z"/>
<path d="M582 1593 c3 -15 19 -20 86 -27 45 -5 82 -12 82 -15 0 -4 -25 -31
-55 -61 -48 -47 -71 -90 -48 -90 13 0 153 144 153 157 0 18 -8 21 -113 37
-118 19 -109 20 -105 -1z"/>
<path d="M2623 1394 c-3 -9 1 -40 11 -68 9 -29 16 -57 16 -63 0 -6 -31 -14
-70 -17 -56 -6 -72 -11 -81 -28 -10 -18 -8 -20 18 -14 15 3 53 7 83 8 l55 3
25 -78 c14 -42 28 -77 32 -77 16 0 18 47 3 89 -24 68 -22 71 39 71 38 0 61 6
77 19 13 11 22 21 19 23 -3 3 -38 2 -78 -1 -46 -4 -77 -2 -82 4 -5 6 -16 41
-26 78 -16 66 -29 82 -41 51z"/>
<path d="M830 1385 c0 -8 9 -19 20 -25 39 -21 62 -95 41 -129 -6 -10 -22 7
-60 63 -28 42 -56 76 -61 76 -5 0 -18 -12 -30 -27 -50 -63 13 -173 98 -173 46
0 75 19 92 60 17 42 -2 101 -47 141 -37 32 -53 37 -53 14z m16 -182 c-15 -15
-62 14 -79 49 -15 30 -16 41 -7 59 11 20 14 18 52 -40 23 -34 38 -64 34 -68z"/>
<path d="M915 1089 c-65 -74 -85 -103 -76 -112 8 -8 21 -1 51 28 29 28 40 34
40 22 0 -9 13 -31 29 -49 26 -29 35 -33 81 -33 44 0 55 4 76 28 37 43 33 100
-10 143 -21 21 -44 34 -59 34 -20 0 -24 4 -20 20 12 45 -29 16 -112 -81z m145
24 c34 -23 40 -33 40 -70 0 -55 -52 -87 -95 -59 -43 28 -59 62 -45 95 10 26
40 49 65 50 6 1 22 -7 35 -16z"/>
<path d="M2376 1112 c-3 -5 26 -46 64 -91 39 -45 70 -86 70 -91 0 -4 -14 -20
-31 -34 -28 -24 -32 -46 -8 -46 5 0 46 30 89 67 63 52 77 69 69 79 -9 11 -17
9 -41 -11 -17 -14 -36 -24 -42 -22 -6 2 -39 37 -73 78 -61 72 -85 90 -97 71z"/>
<path d="M1326 909 c-40 -48 -38 -101 5 -141 23 -22 39 -28 75 -28 51 0 50 0
28 -76 -4 -14 0 -23 10 -27 22 -9 105 251 85 264 -8 4 -19 3 -26 -3 -9 -7 -13
-7 -13 1 0 17 -56 41 -99 41 -32 0 -44 -6 -65 -31z m118 -10 c13 -7 30 -24 36
-39 30 -73 -66 -125 -127 -67 -30 27 -29 62 2 92 26 27 51 31 89 14z"/>
<path d="M2067 934 c-3 -4 -9 -33 -13 -65 -4 -33 -10 -59 -14 -59 -4 0 -24 20
-44 45 -60 73 -67 64 -82 -92 -6 -61 -4 -73 8 -73 18 0 28 40 28 106 0 24 4
44 9 44 5 0 25 -19 45 -41 44 -52 62 -47 71 20 4 28 10 53 14 55 3 3 24 -22
45 -55 35 -55 66 -76 66 -46 0 15 -108 167 -119 167 -4 0 -11 -3 -14 -6z"/>
<path d="M1647 879 c-31 -12 -31 -36 -1 -31 57 11 103 6 123 -12 38 -35 27
-41 -69 -38 l-90 3 0 -26 c0 -37 16 -62 50 -80 110 -57 222 66 142 156 -23 26
-37 32 -78 35 -27 2 -62 -1 -77 -7z m143 -125 c0 -21 -58 -47 -89 -39 -28 7
-61 32 -61 47 0 5 34 8 75 7 55 -1 75 -5 75 -15z"/>
</g>
</svg>
