<?xml version="1.0" standalone="no"?>
<!DOCTYPE svg PUBLIC "-//W3C//DTD SVG 20010904//EN"
 "http://www.w3.org/TR/2001/REC-SVG-20010904/DTD/svg10.dtd">
<svg version="1.0" xmlns="http://www.w3.org/2000/svg"
 width="500.000000pt" height="500.000000pt" viewBox="0 0 500.000000 500.000000"
 preserveAspectRatio="xMidYMid meet">

<g transform="translate(0.000000,500.000000) scale(0.100000,-0.100000)"
fill="#000000" stroke="none">
<path d="M2761 4187 c-18 -23 -2 -49 28 -45 20 2 26 8 26 28 0 29 -34 40 -54
17z"/>
<path d="M2215 4150 l7 -40 -36 0 c-33 0 -36 -3 -36 -28 0 -26 2 -28 34 -24
41 5 42 2 51 -125 7 -92 13 -104 44 -84 10 7 12 30 6 115 l-7 106 41 0 c37 0
41 2 41 25 0 23 -4 25 -45 25 -45 0 -45 0 -45 35 0 32 -2 35 -31 35 -30 0 -31
-1 -24 -40z"/>
<path d="M1984 4070 c-13 -5 -30 -31 -44 -64 -12 -31 -25 -56 -28 -56 -2 0
-27 14 -54 30 -46 28 -53 30 -85 19 l-35 -11 75 -44 76 -44 -35 -82 c-19 -44
-33 -82 -32 -84 2 -1 17 3 34 11 23 9 35 25 48 61 10 27 22 53 27 58 4 4 32
-6 63 -23 40 -23 62 -30 80 -25 43 10 39 20 -22 52 -101 54 -98 47 -63 126 41
90 41 95 -5 76z"/>
<path d="M2736 4063 c-2 -10 -14 -63 -26 -118 -31 -140 -46 -165 -101 -165
-20 0 -24 -16 -10 -39 13 -21 73 -6 104 27 22 22 33 55 57 160 17 73 28 137
25 142 -10 17 -43 11 -49 -7z"/>
<path d="M2927 3999 c-27 -16 -39 -54 -25 -83 6 -14 37 -45 69 -70 33 -25 59
-52 59 -60 0 -38 -86 -21 -124 24 -25 31 -50 38 -62 19 -10 -17 28 -61 76 -86
82 -43 160 -21 160 46 0 28 -10 40 -104 118 -36 30 -34 53 4 53 39 0 86 -24
100 -50 13 -24 38 -26 47 -4 13 34 -88 104 -152 103 -16 0 -38 -4 -48 -10z"/>
<path d="M2472 3908 c-26 -26 -6 -68 33 -68 43 0 62 50 26 70 -26 13 -44 13
-59 -2z"/>
<path d="M1575 3884 c-5 -1 -22 -5 -37 -8 -41 -9 -96 -63 -109 -106 -23 -78
22 -162 95 -175 70 -14 166 37 202 106 13 26 13 29 -5 39 -17 8 -23 5 -36 -18
-25 -42 -79 -74 -125 -76 -78 -2 -70 17 39 90 55 37 101 71 101 75 0 32 -87
83 -125 73z m33 -50 c37 -10 26 -27 -50 -74 -91 -57 -88 -56 -88 -27 0 32 35
76 74 93 36 16 35 15 64 8z"/>
<path d="M3346 3778 c-7 -18 -32 -75 -55 -127 -55 -125 -49 -133 67 -86 53 22
82 29 79 21 -3 -7 -15 -46 -27 -85 -32 -110 -26 -112 130 -38 127 60 130 62
111 80 -18 18 -20 17 -110 -27 -50 -26 -91 -45 -91 -43 0 2 11 37 25 78 14 40
23 79 21 86 -8 19 -40 16 -108 -12 -34 -14 -63 -25 -64 -25 -2 0 16 40 38 90
34 74 39 92 28 105 -19 22 -28 19 -44 -17z"/>
<path d="M1225 3616 c-37 -16 -64 -55 -72 -102 -5 -28 -8 -32 -19 -23 -16 13
-47 -6 -42 -26 3 -13 185 -175 196 -175 4 0 12 8 19 19 10 16 4 26 -53 75 -58
52 -64 61 -64 97 0 29 7 47 25 64 40 41 64 33 158 -48 55 -48 58 -50 72 -31
14 18 11 23 -47 78 -56 51 -111 87 -135 86 -4 -1 -22 -7 -38 -14z"/>
<path d="M3625 3381 c-54 -24 -77 -61 -77 -122 0 -56 35 -126 81 -158 35 -25
47 -26 55 -4 5 12 -3 24 -24 41 -17 13 -37 37 -45 52 -19 36 -19 104 -2 119
11 8 26 -11 72 -92 32 -56 60 -104 62 -106 10 -13 59 30 75 67 53 120 -80 257
-197 203z m127 -73 c15 -17 30 -44 33 -59 6 -27 -8 -69 -23 -69 -9 0 -92 145
-92 161 0 21 54 -1 82 -33z"/>
<path d="M902 3346 c-10 -22 1 -40 128 -207 77 -101 143 -185 148 -187 5 -1
13 8 19 21 10 20 -4 42 -131 209 -77 103 -144 187 -147 188 -3 0 -11 -11 -17
-24z"/>
<path d="M3855 3013 c-93 -25 -172 -46 -173 -48 -8 -8 10 -45 22 -45 9 0 11
-16 9 -57 -5 -68 16 -111 69 -143 79 -48 186 3 204 97 8 43 -9 104 -36 128
-11 10 -20 22 -20 26 0 4 24 13 54 20 30 6 59 15 65 18 13 9 2 51 -13 50 -6
-1 -87 -21 -181 -46z m47 -80 c43 -39 47 -122 7 -159 -27 -25 -91 -25 -118 0
-12 11 -26 36 -32 56 -28 91 74 165 143 103z"/>
<path d="M841 2914 c-38 -32 -49 -81 -29 -133 14 -36 14 -38 -2 -34 -12 3 -20
-2 -25 -17 -4 -12 -4 -24 -1 -27 3 -4 61 -18 128 -33 124 -27 137 -26 138 10
0 12 -22 20 -82 33 -98 20 -121 39 -116 100 2 29 10 45 29 60 26 18 29 19 97
3 98 -22 112 -21 112 7 0 21 -8 25 -78 40 -106 23 -135 22 -171 -9z"/>
<path d="M766 2544 c-11 -29 -6 -51 18 -87 24 -35 24 -36 5 -42 -12 -4 -19
-15 -19 -32 l0 -26 98 6 c53 4 114 7 135 7 33 0 37 3 37 25 0 25 -1 25 -85 25
-79 0 -88 2 -111 26 -21 20 -25 33 -22 64 3 32 0 40 -17 44 -29 8 -32 8 -39
-10z"/>
<path d="M3814 2420 c-29 -12 -62 -56 -74 -99 -9 -34 -5 -64 15 -113 5 -13 2
-15 -14 -11 -18 4 -21 1 -21 -24 l0 -28 182 -28 c185 -28 197 -27 198 10 0 11
-16 16 -97 28 l-41 6 24 36 c32 48 34 138 3 177 -39 50 -116 70 -175 46z m106
-55 c65 -34 58 -144 -11 -178 -29 -14 -42 -15 -68 -6 -75 26 -81 145 -10 185
31 17 54 17 89 -1z"/>
<path d="M1001 2246 c-11 -13 -9 -20 8 -42 45 -57 50 -144 10 -180 -10 -9 -19
-15 -20 -13 0 2 -15 56 -33 119 -30 109 -33 115 -56 112 -34 -4 -78 -49 -90
-92 -34 -128 98 -243 211 -184 33 17 68 81 69 125 0 43 -29 115 -59 143 -24
23 -29 25 -40 12z m-67 -158 c23 -83 23 -88 6 -88 -25 0 -68 53 -76 94 -3 20
-1 44 7 57 13 26 33 42 36 31 2 -4 14 -46 27 -94z"/>
<path d="M3705 2021 c-62 -38 -95 -100 -95 -176 0 -42 2 -46 23 -43 18 3 22
10 24 47 2 24 11 58 21 75 19 33 86 76 98 63 4 -4 -14 -55 -39 -115 -26 -59
-47 -110 -47 -114 0 -3 16 -12 35 -18 87 -29 175 53 175 163 0 103 -111 170
-195 118z m144 -87 c16 -37 -2 -96 -40 -128 -31 -26 -59 -34 -59 -16 0 5 12
35 26 67 14 32 30 68 35 81 11 29 23 28 38 -4z"/>
<path d="M1049 1865 c-81 -58 -106 -95 -95 -141 9 -36 58 -83 94 -90 28 -6 30
-8 25 -44 -7 -50 20 -95 69 -118 36 -16 49 -32 28 -32 -15 0 -12 -26 4 -39 12
-10 35 1 120 59 58 39 106 74 106 78 0 5 -6 16 -13 25 -11 16 -18 14 -77 -28
-78 -55 -126 -61 -159 -19 -24 30 -27 63 -8 86 6 8 40 34 75 58 63 43 73 59
49 78 -10 9 -29 0 -80 -33 -77 -52 -103 -55 -147 -19 -25 21 -30 33 -28 58 3
26 15 39 81 84 68 47 76 56 67 73 -6 10 -16 19 -23 19 -7 -1 -46 -25 -88 -55z"/>
<path d="M3460 1645 c-10 -12 -2 -39 46 -150 33 -74 63 -133 68 -132 5 2 14
11 20 20 8 12 0 38 -33 109 -23 51 -45 98 -47 104 -3 7 38 2 106 -14 88 -19
113 -22 125 -12 32 27 14 37 -114 63 -150 31 -155 32 -171 12z"/>
<path d="M1465 1464 c-9 -9 -14 -23 -11 -31 3 -8 6 -16 6 -18 0 -3 9 -9 20
-15 47 -25 82 34 38 64 -28 20 -33 20 -53 0z"/>
<path d="M3265 1440 c-70 -22 -159 -129 -124 -151 21 -13 23 -12 42 24 25 46
75 77 125 77 22 0 43 -4 47 -10 3 -5 -37 -41 -90 -81 -52 -39 -95 -75 -95 -78
0 -18 61 -62 92 -67 52 -9 120 25 154 75 76 115 -22 250 -151 211z m135 -128
c0 -52 -75 -116 -128 -110 -43 5 -32 25 43 82 71 54 85 59 85 28z"/>
<path d="M1705 1273 c-11 -20 -32 -54 -48 -75 -23 -33 -32 -38 -66 -38 -23 0
-48 8 -63 20 -25 19 -25 19 -44 -1 -17 -19 -17 -20 4 -42 18 -17 34 -22 72
-21 44 0 48 -1 39 -17 -7 -14 -4 -21 12 -30 27 -14 29 -11 104 115 54 93 57
100 40 113 -26 18 -28 17 -50 -24z"/>
<path d="M2983 1267 c-21 -12 -21 -14 57 -177 44 -91 85 -166 92 -167 7 -2 19
1 26 6 11 6 -3 44 -64 172 -43 90 -80 167 -83 171 -3 4 -16 1 -28 -5z"/>
<path d="M2440 1177 l0 -75 -37 19 c-80 41 -168 16 -204 -58 -38 -78 -11 -150
68 -185 49 -22 99 -19 141 8 20 13 22 13 22 -6 0 -26 46 -28 54 -2 3 9 6 96 8
192 l2 175 -27 3 -27 3 0 -74z m-37 -107 c77 -60 13 -175 -87 -156 -49 9 -90
59 -82 100 13 70 111 102 169 56z"/>
<path d="M1858 1204 c-3 -3 -4 -14 -1 -25 4 -16 11 -18 43 -13 51 8 123 -24
144 -65 9 -16 16 -32 16 -36 0 -11 -32 -4 -123 25 -120 38 -125 38 -133 -5 -8
-42 18 -99 59 -129 41 -30 141 -34 185 -6 36 22 62 72 62 118 0 74 -91 142
-190 142 -31 0 -59 -3 -62 -6z m99 -165 c46 -13 81 -28 80 -34 -2 -5 -15 -16
-30 -23 -37 -18 -95 -5 -129 29 -28 28 -38 65 -15 57 6 -3 49 -15 94 -29z"/>
<path d="M2726 1179 c-84 -20 -132 -81 -123 -156 9 -80 84 -132 172 -119 116
18 179 133 121 221 -31 47 -104 70 -170 54z m90 -55 c101 -48 32 -189 -84
-170 -110 17 -105 142 8 179 26 9 41 7 76 -9z"/>
</g>
</svg>
